<svg width="592" height="124" viewBox="0 0 592 124" fill="none" xmlns="http://www.w3.org/2000/svg">
<path d="M248.092 27.9805V98H238.082V68.0195H197.994V98H187.984V27.9805H197.994V58.0098H238.082V27.9805H248.092ZM265.133 75.2949C265.133 73.9603 265.377 72.7233 265.865 71.584C266.386 70.4121 267.07 69.3867 267.916 68.5078C268.795 67.6289 269.82 66.9453 270.992 66.457C272.164 65.9362 273.401 65.6758 274.703 65.6758H299.508V55.6172H268.111V45.998H299.508C300.842 45.998 302.096 46.2585 303.268 46.7793C304.439 47.2676 305.449 47.9512 306.295 48.8301C307.174 49.6764 307.857 50.6855 308.346 51.8574C308.867 53.0293 309.127 54.2826 309.127 55.6172V98H299.508V89.2109C299.41 90.4154 299.085 91.5547 298.531 92.6289C297.978 93.7031 297.262 94.6471 296.383 95.4609C295.536 96.2422 294.56 96.8607 293.453 97.3164C292.346 97.7721 291.174 98 289.938 98H274.703C273.401 98 272.164 97.7559 270.992 97.2676C269.82 96.7467 268.795 96.0632 267.916 95.2168C267.07 94.3379 266.386 93.3125 265.865 92.1406C265.377 90.9688 265.133 89.7155 265.133 88.3809V75.2949ZM274.703 88.3809H299.508V75.2949H274.703V88.3809ZM335.982 98L319.186 45.998H328.902L341.207 85.207L352.682 45.998H362.496L373.971 85.207L386.275 45.998H395.992L379.195 98H369.186L357.564 59.8164L345.992 98H335.982ZM416.158 45.998V98H406.539V45.998H416.158ZM406.051 25.9785H416.646V35.9883H406.051V25.9785ZM436.227 118.996L447.115 93.3125L426.705 45.998H436.812L451.998 81.7891L467.184 45.998H477.291L445.797 118.996H436.227ZM487.301 75.2949C487.301 73.9603 487.545 72.7233 488.033 71.584C488.554 70.4121 489.238 69.3867 490.084 68.5078C490.963 67.6289 491.988 66.9453 493.16 66.457C494.332 65.9362 495.569 65.6758 496.871 65.6758H521.676V55.6172H490.279V45.998H521.676C523.01 45.998 524.264 46.2585 525.436 46.7793C526.607 47.2676 527.617 47.9512 528.463 48.8301C529.342 49.6764 530.025 50.6855 530.514 51.8574C531.035 53.0293 531.295 54.2826 531.295 55.6172V98H521.676V89.2109C521.578 90.4154 521.253 91.5547 520.699 92.6289C520.146 93.7031 519.43 94.6471 518.551 95.4609C517.704 96.2422 516.728 96.8607 515.621 97.3164C514.514 97.7721 513.342 98 512.105 98H496.871C495.569 98 494.332 97.7559 493.16 97.2676C491.988 96.7467 490.963 96.0632 490.084 95.2168C489.238 94.3379 488.554 93.3125 488.033 92.1406C487.545 90.9688 487.301 89.7155 487.301 88.3809V75.2949ZM496.871 88.3809H521.676V75.2949H496.871V88.3809ZM544.332 45.998H557.027V29.9824H566.646V45.998H583.736V55.6172H566.646V88.3809H583.736V98H566.646C565.344 98 564.107 97.7559 562.936 97.2676C561.764 96.7467 560.738 96.0632 559.859 95.2168C558.98 94.3379 558.281 93.3125 557.76 92.1406C557.271 90.9688 557.027 89.7155 557.027 88.3809V55.6172H544.332V45.998Z" fill="#120F0F"/>
<path d="M0 31.3416V93.0816L53.9958 62.2118L0 31.3416Z" fill="#BFBFBF"/>
<path d="M53.9958 0.472412V62.2124L0 31.3427L53.9958 0.472412Z" fill="#BCD3D5"/>
<path d="M107.993 31.3422L53.9941 0.472397V62.2124L107.993 31.3422Z" fill="white"/>
<path d="M107.993 31.3416V93.0816L53.9941 62.2118L107.993 31.3416Z" fill="#828485"/>
<path d="M53.9941 62.2133V123.953L107.993 93.0831L53.9941 62.2133Z" fill="#828485"/>
<path d="M0 93.0831L53.9958 123.953V62.2133L0 93.0831Z" fill="#BFBFBF"/>
<path d="M53.9941 123.953L149.999 104.243L111.46 75.1747L107.993 72.6767V93.0823L53.9941 123.953Z" fill="url(#paint0_linear_1519_4233)"/>
<defs>
<linearGradient id="paint0_linear_1519_4233" x1="149.999" y1="92.4895" x2="54.0224" y2="104.368" gradientUnits="userSpaceOnUse">
<stop stop-color="#C5BDBD"/>
<stop offset="1" stop-color="#7C7878"/>
</linearGradient>
</defs>
</svg>
