<svg width="592" height="124" viewBox="0 0 592 124" fill="none" xmlns="http://www.w3.org/2000/svg">
<path d="M248.092 27.5081V97.5276H238.082V67.5471H197.994V97.5276H187.984V27.5081H197.994V57.5374H238.082V27.5081H248.092ZM265.133 74.8225C265.133 73.4879 265.377 72.2509 265.865 71.1116C266.386 69.9397 267.07 68.9143 267.916 68.0354C268.795 67.1565 269.82 66.4729 270.992 65.9846C272.164 65.4638 273.401 65.2034 274.703 65.2034H299.508V55.1448H268.111V45.5256H299.508C300.842 45.5256 302.096 45.7861 303.268 46.3069C304.439 46.7952 305.449 47.4788 306.295 48.3577C307.174 49.204 307.857 50.2131 308.346 51.385C308.867 52.5569 309.127 53.8101 309.127 55.1448V97.5276H299.508V88.7385C299.41 89.943 299.085 91.0823 298.531 92.1565C297.978 93.2307 297.262 94.1747 296.383 94.9885C295.536 95.7698 294.56 96.3883 293.453 96.844C292.346 97.2997 291.174 97.5276 289.938 97.5276H274.703C273.401 97.5276 272.164 97.2834 270.992 96.7952C269.82 96.2743 268.795 95.5907 267.916 94.7444C267.07 93.8655 266.386 92.8401 265.865 91.6682C265.377 90.4963 265.133 89.2431 265.133 87.9084V74.8225ZM274.703 87.9084H299.508V74.8225H274.703V87.9084ZM335.982 97.5276L319.186 45.5256H328.902L341.207 84.7346L352.682 45.5256H362.496L373.971 84.7346L386.275 45.5256H395.992L379.195 97.5276H369.186L357.564 59.344L345.992 97.5276H335.982ZM416.158 45.5256V97.5276H406.539V45.5256H416.158ZM406.051 25.5061H416.646V35.5159H406.051V25.5061ZM436.227 118.524L447.115 92.8401L426.705 45.5256H436.812L451.998 81.3167L467.184 45.5256H477.291L445.797 118.524H436.227ZM487.301 74.8225C487.301 73.4879 487.545 72.2509 488.033 71.1116C488.554 69.9397 489.238 68.9143 490.084 68.0354C490.963 67.1565 491.988 66.4729 493.16 65.9846C494.332 65.4638 495.569 65.2034 496.871 65.2034H521.676V55.1448H490.279V45.5256H521.676C523.01 45.5256 524.264 45.7861 525.436 46.3069C526.607 46.7952 527.617 47.4788 528.463 48.3577C529.342 49.204 530.025 50.2131 530.514 51.385C531.035 52.5569 531.295 53.8101 531.295 55.1448V97.5276H521.676V88.7385C521.578 89.943 521.253 91.0823 520.699 92.1565C520.146 93.2307 519.43 94.1747 518.551 94.9885C517.704 95.7698 516.728 96.3883 515.621 96.844C514.514 97.2997 513.342 97.5276 512.105 97.5276H496.871C495.569 97.5276 494.332 97.2834 493.16 96.7952C491.988 96.2743 490.963 95.5907 490.084 94.7444C489.238 93.8655 488.554 92.8401 488.033 91.6682C487.545 90.4963 487.301 89.2431 487.301 87.9084V74.8225ZM496.871 87.9084H521.676V74.8225H496.871V87.9084ZM544.332 45.5256H557.027V29.51H566.646V45.5256H583.736V55.1448H566.646V87.9084H583.736V97.5276H566.646C565.344 97.5276 564.107 97.2834 562.936 96.7952C561.764 96.2743 560.738 95.5907 559.859 94.7444C558.98 93.8655 558.281 92.8401 557.76 91.6682C557.271 90.4963 557.027 89.2431 557.027 87.9084V55.1448H544.332V45.5256Z" fill="#F8F8F8"/>
<path d="M0 30.8691V92.6092L53.9958 61.7394L0 30.8691Z" fill="#BFBFBF"/>
<path d="M53.9958 1.90735e-06V61.74L0 30.8703L53.9958 1.90735e-06Z" fill="#BCD3D5"/>
<path d="M107.993 30.8698L53.9941 -1.33514e-05V61.74L107.993 30.8698Z" fill="white"/>
<path d="M107.993 30.8691V92.6092L53.9941 61.7394L107.993 30.8691Z" fill="#828485"/>
<path d="M53.9941 61.7409V123.481L107.993 92.6107L53.9941 61.7409Z" fill="#828485"/>
<path d="M0 92.6107L53.9958 123.481V61.7409L0 92.6107Z" fill="#BFBFBF"/>
<path d="M53.9941 123.48L149.999 103.771L111.46 74.7023L107.993 72.2043V92.6099L53.9941 123.48Z" fill="url(#paint0_linear_1578_3840)"/>
<defs>
<linearGradient id="paint0_linear_1578_3840" x1="149.999" y1="92.0171" x2="54.0224" y2="103.896" gradientUnits="userSpaceOnUse">
<stop stop-color="#C5BDBD"/>
<stop offset="1" stop-color="#7C7878"/>
</linearGradient>
</defs>
</svg>
